<svg width="24" height="24" viewBox="0 0 24 24" fill="none" xmlns="http://www.w3.org/2000/svg">
<path d="M7.99742 10.341V12.535C7.46644 12.842 7.01316 13.267 6.67264 13.7771C6.33212 14.2873 6.11348 14.8689 6.03361 15.477C5.95374 16.0851 6.01478 16.7035 6.21202 17.2842C6.40926 17.865 6.73742 18.3926 7.17112 18.8263C7.60482 19.26 8.13244 19.5882 8.71321 19.7854C9.29397 19.9827 9.91231 20.0437 10.5204 19.9638C11.1286 19.884 11.7102 19.6653 12.2203 19.3248C12.7304 18.9843 13.1554 18.531 13.4624 18H15.6554C15.317 18.9551 14.7422 19.8089 13.9846 20.4818C13.2271 21.1547 12.3115 21.6248 11.3232 21.8482C10.3349 22.0717 9.30607 22.0412 8.33272 21.7597C7.35938 21.4781 6.47319 20.9546 5.75681 20.2381C5.04042 19.5215 4.51718 18.6352 4.23587 17.6617C3.95456 16.6883 3.92435 15.6595 4.14806 14.6713C4.37177 13.683 4.84211 12.7675 5.51522 12.0101C6.18832 11.2528 7.04227 10.6792 7.99742 10.341ZM11.9974 16.999C11.2018 16.999 10.4387 16.683 9.8761 16.1203C9.31349 15.5577 8.99742 14.7947 8.99742 13.999V9.99902C8.99742 9.20337 9.31349 8.44031 9.8761 7.8777C10.4387 7.31509 11.2018 6.99902 11.9974 6.99902C12.7931 6.99902 13.5561 7.31509 14.1187 7.8777C14.6813 8.44031 14.9974 9.20337 14.9974 9.99902V14.999H16.4314C16.7494 14.9991 17.0628 15.075 17.3455 15.2203C17.6283 15.3657 17.8724 15.5765 18.0574 15.835L18.1464 15.97L20.8554 20.484L19.1404 21.514L16.4294 17L11.9974 16.999ZM11.9974 1.99902C12.6605 1.99902 13.2963 2.26242 13.7652 2.73126C14.234 3.2001 14.4974 3.83598 14.4974 4.49902C14.4974 5.16206 14.234 5.79795 13.7652 6.26679C13.2963 6.73563 12.6605 6.99902 11.9974 6.99902C11.3344 6.99902 10.6985 6.73563 10.2297 6.26679C9.76081 5.79795 9.49742 5.16206 9.49742 4.49902C9.49742 3.83598 9.76081 3.2001 10.2297 2.73126C10.6985 2.26242 11.3344 1.99902 11.9974 1.99902Z" fill="url(#paint0_linear_3_21125)"/>
<defs>
<linearGradient id="paint0_linear_3_21125" x1="4" y1="11.9975" x2="20.8554" y2="11.9975" gradientUnits="userSpaceOnUse">
<stop/>
<stop offset="1" stop-color="#666666"/>
</linearGradient>
</defs>
</svg>
