<svg width="22" height="28" viewBox="0 0 22 28" fill="none" xmlns="http://www.w3.org/2000/svg">
<path d="M20.1625 2.64014C20.9594 2.64014 21.6625 3.34326 21.6625 4.18701V22.1401C21.6625 22.9839 20.9594 23.6401 20.1625 23.6401H2.11563C1.31875 23.6401 0.6625 22.9839 0.6625 22.1401V4.18701C0.6625 3.34326 1.31875 2.64014 2.11563 2.64014H20.1625ZM6.99063 20.6401V10.6558H3.89688V20.6401H6.99063ZM5.44375 9.24951C6.42813 9.24951 7.225 8.45264 7.225 7.46826C7.225 6.48389 6.42813 5.64014 5.44375 5.64014C4.4125 5.64014 3.61563 6.48389 3.61563 7.46826C3.61563 8.45264 4.4125 9.24951 5.44375 9.24951ZM18.6625 20.6401V15.1558C18.6625 12.4839 18.0531 10.3745 14.9125 10.3745C13.4125 10.3745 12.3813 11.2183 11.9594 12.0151H11.9125V10.6558H8.95938V20.6401H12.0531V15.7183C12.0531 14.4058 12.2875 13.1401 13.9281 13.1401C15.5219 13.1401 15.5219 14.6401 15.5219 15.7651V20.6401H18.6625Z" fill="#60A5FA"/>
</svg>
