<svg width="25" height="24" viewBox="0 0 25 24" fill="none" xmlns="http://www.w3.org/2000/svg">
<path d="M9.3125 10C9.3125 9.13805 9.65491 8.3114 10.2644 7.7019C10.8739 7.09241 11.7005 6.75 12.5625 6.75C13.4245 6.75 14.2511 7.09241 14.8606 7.7019C15.4701 8.3114 15.8125 9.13805 15.8125 10C15.8125 10.862 15.4701 11.6886 14.8606 12.2981C14.2511 12.9076 13.4245 13.25 12.5625 13.25C11.7005 13.25 10.8739 12.9076 10.2644 12.2981C9.65491 11.6886 9.3125 10.862 9.3125 10Z" fill="#CBD5E1"/>
<path fill-rule="evenodd" clip-rule="evenodd" d="M4.33584 8.877C4.50218 6.86675 5.41807 4.99247 6.90181 3.62598C8.38555 2.2595 10.3287 1.50066 12.3458 1.5H12.7778C14.795 1.50066 16.7381 2.2595 18.2219 3.62598C19.7056 4.99247 20.6215 6.86675 20.7878 8.877C20.9724 11.1214 20.2795 13.3499 18.8548 15.094L14.0618 20.956C13.8802 21.1783 13.6514 21.3575 13.3919 21.4806C13.1325 21.6036 12.849 21.6675 12.5618 21.6675C12.2747 21.6675 11.9912 21.6036 11.7318 21.4806C11.4723 21.3575 11.2435 21.1783 11.0618 20.956L6.26984 15.094C4.8448 13.3501 4.15154 11.1215 4.33584 8.877ZM12.5618 5.25C11.3021 5.25 10.0939 5.75045 9.20308 6.64124C8.31229 7.53204 7.81184 8.74022 7.81184 10C7.81184 11.2598 8.31229 12.468 9.20308 13.3588C10.0939 14.2496 11.3021 14.75 12.5618 14.75C13.8216 14.75 15.0298 14.2496 15.9206 13.3588C16.8114 12.468 17.3118 11.2598 17.3118 10C17.3118 8.74022 16.8114 7.53204 15.9206 6.64124C15.0298 5.75045 13.8216 5.25 12.5618 5.25Z" fill="#CBD5E1"/>
</svg>
