<svg width="24" height="25" viewBox="0 0 24 25" fill="none" xmlns="http://www.w3.org/2000/svg">
<g clip-path="url(#clip0_3_21134)">
<path d="M23.2408 22.2224L21.6004 17.3H19.8004L20.8 22.1H3.20083L4.20043 17.3H2.40043L0.758833 22.2224C0.342433 23.4752 1.08043 24.5 2.40043 24.5H21.6004C22.9204 24.5 23.6584 23.4752 23.2408 22.2224ZM18.0004 6.5C18.0004 4.9087 17.3683 3.38258 16.2431 2.25736C15.1179 1.13214 13.5917 0.5 12.0004 0.5C10.4091 0.5 8.88301 1.13214 7.75779 2.25736C6.63257 3.38258 6.00043 4.9087 6.00043 6.5C6.00043 12.23 12.0004 18.5 12.0004 18.5C12.0004 18.5 18.0004 12.23 18.0004 6.5ZM8.76043 6.572C8.76075 5.71291 9.10225 4.88911 9.70983 4.28175C10.3174 3.67439 11.1413 3.3332 12.0004 3.3332C12.8596 3.3332 13.6835 3.67449 14.291 4.282C14.8985 4.8895 15.2398 5.71346 15.2398 6.5726C15.2398 7.43174 14.8985 8.2557 14.291 8.8632C13.6835 9.47071 12.8596 9.812 12.0004 9.812C11.1411 9.812 10.317 9.47064 9.70941 8.86303C9.10179 8.25541 8.76043 7.4313 8.76043 6.572Z" fill="#373737"/>
</g>
<defs>
<clipPath id="clip0_3_21134">
<rect width="24" height="24" fill="white" transform="translate(0 0.5)"/>
</clipPath>
</defs>
</svg>
