<svg width="25" height="24" viewBox="0 0 25 24" fill="none" xmlns="http://www.w3.org/2000/svg">
<path d="M4.5625 20C4.0125 20 3.54183 19.8043 3.1505 19.413C2.75917 19.0217 2.56317 18.5507 2.5625 18V6C2.5625 5.45 2.7585 4.97933 3.1505 4.588C3.5425 4.19667 4.01317 4.00067 4.5625 4H20.5625C21.1125 4 21.5835 4.196 21.9755 4.588C22.3675 4.98 22.5632 5.45067 22.5625 6V18C22.5625 18.55 22.3668 19.021 21.9755 19.413C21.5842 19.805 21.1132 20.0007 20.5625 20H4.5625ZM12.5625 13L20.5625 8V6L12.5625 11L4.5625 6V8L12.5625 13Z" fill="#CBD5E1"/>
</svg>
