<svg width="25" height="24" viewBox="0 0 25 24" fill="none" xmlns="http://www.w3.org/2000/svg">
<path d="M5.5631 9.86001C7.48327 14.0406 10.8945 17.3541 15.1291 19.152L15.8091 19.455C16.5621 19.7903 17.4093 19.8491 18.2015 19.621C18.9936 19.3929 19.6798 18.8925 20.1391 18.208L21.0281 16.884C21.1672 16.6764 21.2235 16.4242 21.186 16.1771C21.1484 15.93 21.0196 15.7059 20.8251 15.549L17.8131 13.119C17.7082 13.0344 17.5873 12.9719 17.4576 12.9353C17.328 12.8986 17.1923 12.8885 17.0586 12.9056C16.925 12.9227 16.7961 12.9666 16.6799 13.0347C16.5636 13.1028 16.4623 13.1938 16.3821 13.302L15.4501 14.559C13.0577 13.3774 11.1212 11.4406 9.9401 9.04801L11.1961 8.11601C11.3043 8.03577 11.3953 7.93448 11.4634 7.81823C11.5315 7.70198 11.5754 7.57316 11.5925 7.4395C11.6096 7.30585 11.5995 7.17012 11.5628 7.04046C11.5262 6.91081 11.4637 6.7899 11.3791 6.68501L8.9491 3.67301C8.7922 3.47846 8.56813 3.34972 8.32104 3.31215C8.07395 3.27458 7.82174 3.33089 7.6141 3.47001L6.2811 4.36401C5.5925 4.82579 5.09019 5.51702 4.86365 6.31457C4.63712 7.11213 4.70106 7.9642 5.0441 8.71901L5.5631 9.86001Z" fill="#CBD5E1"/>
</svg>
